<?xml version="1.0" standalone="no"?>
<!DOCTYPE svg PUBLIC "-//W3C//DTD SVG 20010904//EN"
 "http://www.w3.org/TR/2001/REC-SVG-20010904/DTD/svg10.dtd">
<svg version="1.0" xmlns="http://www.w3.org/2000/svg"
 width="606.000000pt" height="606.000000pt" viewBox="0 0 606.000000 606.000000"
 preserveAspectRatio="xMidYMid meet">
<metadata>
Created by potrace 1.14, written by Peter Selinger 2001-2017
</metadata>
<g transform="translate(0.000000,606.000000) scale(0.100000,-0.100000)"
fill="#000000" stroke="none">
<path d="M2309 5589 c-10 -6 -14 -35 -14 -103 -1 -60 -6 -100 -14 -110 -7 -8
-10 -19 -7 -25 4 -5 -15 -27 -41 -48 -115 -92 -183 -178 -183 -233 0 -21 -1
-20 -42 4 -50 28 -76 23 -98 -20 -8 -16 -17 -31 -20 -34 -3 -3 -11 -15 -17
-27 -7 -13 -19 -33 -25 -45 -7 -13 -17 -26 -22 -29 -5 -4 -9 -21 -10 -39 -1
-28 -11 -40 -76 -89 -40 -31 -87 -68 -103 -82 -28 -26 -34 -27 -127 -25 -104
2 -267 -8 -300 -19 -15 -5 -20 -15 -20 -44 0 -69 13 -76 146 -78 64 -2 119 -4
121 -6 2 -2 -13 -20 -32 -40 -25 -26 -45 -37 -65 -37 -18 0 -35 -9 -48 -25
-11 -13 -22 -22 -25 -18 -3 3 -77 6 -164 6 -167 0 -202 -7 -204 -43 -4 -55
-10 -56 -53 -10 -20 22 -41 40 -47 40 -34 0 -99 -56 -99 -86 0 -6 29 -42 65
-80 35 -38 64 -77 65 -86 0 -10 5 -18 11 -18 8 0 9 -19 4 -62 -11 -100 -11
-211 -1 -238 6 -14 18 -37 29 -52 13 -21 15 -28 5 -29 -65 -3 -100 -29 -93
-68 9 -47 13 -66 23 -106 6 -22 13 -53 16 -69 3 -16 12 -36 21 -46 8 -9 13
-23 11 -31 -9 -23 -16 -71 -22 -144 -3 -38 -7 -78 -8 -88 -1 -10 -47 -64 -102
-120 -89 -92 -125 -133 -167 -191 -12 -17 -11 -22 6 -39 31 -31 68 -47 86 -37
9 4 50 42 91 84 40 42 76 74 78 71 2 -2 6 -25 9 -51 3 -41 1 -51 -22 -71 -27
-26 -29 -31 -16 -52 7 -11 -18 -41 -98 -120 -59 -58 -117 -117 -129 -131 l-22
-26 20 -37 c11 -20 20 -39 20 -42 0 -3 -27 -5 -59 -5 -64 0 -68 -3 -77 -70 -9
-61 9 -73 114 -75 54 -1 97 -7 106 -14 7 -6 18 -11 22 -10 21 4 32 -3 42 -25
15 -34 121 -145 164 -172 21 -13 46 -24 57 -24 23 0 38 -19 24 -29 -19 -12
-33 -51 -28 -74 7 -28 189 -143 220 -140 14 2 30 -12 54 -47 18 -27 53 -71 77
-97 24 -26 46 -57 48 -68 3 -11 7 -92 10 -180 3 -88 7 -169 10 -180 2 -11 5
-28 5 -37 1 -28 82 -25 107 3 17 18 19 35 17 130 -1 70 2 109 9 109 23 0 73
-55 73 -80 -1 -27 23 -72 34 -66 3 3 6 -68 4 -157 -2 -206 0 -215 43 -223 48
-9 51 -21 12 -57 -34 -32 -55 -67 -39 -67 4 0 13 -11 19 -24 6 -14 23 -32 37
-42 23 -15 27 -15 51 0 14 10 42 36 62 58 20 23 52 47 70 55 17 7 32 18 32 23
0 6 12 8 28 5 15 -3 75 -8 133 -11 107 -6 129 -1 210 43 4 2 9 -14 13 -35 9
-59 26 -68 94 -53 31 7 68 15 82 18 51 10 55 12 55 13 0 1 9 3 20 5 11 2 25
11 32 20 6 10 15 15 20 12 16 -10 108 -23 216 -31 46 -3 54 -8 145 -98 114
-111 194 -178 214 -178 19 0 59 43 62 66 4 25 -22 61 -99 135 -36 34 -64 64
-62 65 2 2 25 6 51 8 41 5 51 2 72 -19 18 -18 32 -23 48 -19 20 5 41 -12 130
-103 59 -59 118 -116 132 -126 24 -18 26 -18 58 1 18 11 39 16 46 12 6 -4 11
-9 10 -11 -28 -83 -12 -112 64 -113 30 -1 58 3 62 7 5 5 9 51 9 103 1 54 6 99
12 105 6 6 9 17 7 24 -3 7 24 35 59 63 110 88 167 162 167 217 l0 26 28 -20
c32 -24 73 -34 88 -24 6 5 30 42 55 83 24 41 46 77 49 80 21 20 28 49 16 66
-12 16 -9 21 28 47 22 17 71 54 107 83 l65 53 125 1 c141 1 197 4 254 14 38 7
41 9 40 39 -1 48 -14 75 -38 83 -12 4 -70 7 -130 7 l-108 -1 28 32 c15 17 31
35 34 40 4 4 23 9 41 10 41 3 58 12 58 31 0 10 15 12 63 9 34 -2 64 -4 67 -5
17 -4 214 1 229 6 13 4 22 19 26 45 4 22 10 40 14 40 4 0 22 -18 40 -40 18
-22 41 -40 52 -40 10 0 37 18 59 39 49 46 49 45 -33 130 -31 33 -57 66 -57 72
0 7 -7 20 -15 29 -11 13 -13 27 -5 70 18 115 0 290 -32 290 -4 0 -8 6 -8 13 0
8 9 13 23 12 48 -4 86 30 77 70 -1 6 -3 17 -5 25 -2 8 -11 51 -21 95 -10 49
-24 85 -35 93 -14 11 -15 19 -8 44 8 30 13 62 24 177 5 53 7 56 119 172 63 64
126 135 141 157 l27 40 -22 22 c-28 28 -60 39 -85 30 -11 -4 -50 -39 -87 -78
-36 -38 -70 -72 -75 -75 -5 -3 -10 13 -12 35 -1 23 -4 45 -7 50 -3 4 7 19 21
32 19 18 26 33 24 53 -3 23 9 39 66 93 90 85 113 109 153 154 l33 37 -22 35
c-12 19 -19 38 -15 41 3 3 30 5 60 4 61 -2 67 6 72 80 3 57 -4 62 -104 65 -49
1 -98 7 -108 12 -19 10 -26 12 -42 12 -5 0 -23 21 -41 46 -61 83 -147 160
-196 174 -43 12 -57 24 -35 32 5 2 16 19 24 39 14 35 14 37 -7 56 -47 42 -191
124 -208 120 -13 -4 -33 15 -75 72 -32 42 -60 78 -63 81 -52 46 -56 58 -57
183 -3 187 -14 284 -35 298 -5 3 -25 3 -44 1 -58 -7 -69 -34 -66 -164 l2 -110
-40 33 c-32 25 -41 39 -41 63 0 34 -8 51 -28 57 -10 3 -13 48 -15 186 -1 100
-5 184 -8 188 -4 3 -19 8 -35 11 -49 9 -51 22 -11 55 48 39 48 67 2 114 -20
19 -40 35 -46 35 -6 0 -39 -27 -74 -61 -88 -84 -121 -99 -194 -89 -66 9 -184
7 -221 -5 -14 -4 -33 -14 -42 -22 -22 -20 -34 -11 -42 32 -8 39 -34 58 -69 50
-13 -4 -32 -8 -43 -10 -10 -2 -20 -4 -21 -5 -4 -3 -11 -5 -80 -20 -35 -7 -63
-17 -63 -22 0 -6 -15 -7 -37 -3 -66 13 -153 23 -209 24 -26 1 -50 19 -130 97
-55 52 -126 116 -158 140 l-59 45 -28 -27 c-53 -51 -48 -69 48 -162 47 -46 83
-85 81 -87 -2 -3 -26 -6 -52 -8 -40 -4 -52 -1 -71 19 -18 18 -31 22 -53 18
-23 -5 -33 -2 -40 13 -11 19 -134 142 -202 202 -36 32 -59 33 -91 5 -27 -24
-34 -15 -31 42 2 31 -1 61 -6 66 -13 13 -106 18 -123 7z m313 -407 c26 -42 61
-106 80 -142 35 -69 37 -70 81 -52 76 33 72 33 118 -11 42 -41 42 -41 18 -47
-16 -4 -28 -1 -37 11 -22 31 -110 -2 -162 -61 -23 -26 -46 -41 -69 -45 -19 -3
-38 -8 -43 -11 -4 -3 -9 2 -9 10 -1 9 -2 19 -3 24 -1 4 -6 27 -10 52 -20 115
-18 101 -31 272 -8 109 2 109 67 0z m-317 -157 c-1 -74 -4 -138 -8 -141 -19
-19 -84 47 -102 104 -13 44 4 92 48 133 23 21 47 39 52 39 7 0 11 -47 10 -135z
m1341 23 c-3 -29 -8 -64 -11 -78 -3 -14 -8 -43 -11 -65 -3 -22 -9 -42 -14 -45
-4 -3 -30 -3 -58 -2 l-49 4 7 31 c4 21 2 43 -8 62 -18 37 -32 46 -54 39 -58
-18 -66 -15 -97 30 -17 25 -31 46 -31 48 0 2 9 4 20 4 11 0 20 -4 20 -9 0 -4
3 -6 8 -3 4 2 27 1 52 -4 35 -6 47 -5 56 7 7 10 13 12 17 6 4 -7 32 -4 79 8
40 9 75 18 77 18 2 1 1 -23 -3 -51z m-476 -18 c27 -30 46 -58 43 -62 -2 -5
-24 -8 -48 -8 -40 0 -49 5 -100 54 -30 30 -55 58 -55 63 0 5 25 9 56 8 56 -1
58 -2 104 -55z m838 25 c18 -7 -177 -197 -198 -193 -22 5 -18 87 7 135 25 48
70 71 132 66 25 -2 52 -6 59 -8z m266 -143 c-12 -68 -48 -198 -64 -234 -28
-64 -24 -72 65 -110 28 -12 30 -18 33 -71 2 -31 -1 -57 -5 -57 -21 1 -35 20
-31 43 4 21 -2 28 -46 49 -39 19 -64 25 -106 23 -54 -3 -95 10 -118 37 -9 11
1 30 46 90 85 113 147 191 202 250 20 21 30 13 24 -20z m-2190 -69 c36 -51 66
-97 66 -102 0 -5 -16 -23 -36 -39 l-36 -30 -35 24 c-51 34 -76 31 -99 -11 -23
-44 -29 -46 -93 -31 l-52 12 64 44 c58 39 64 46 56 66 -6 16 -4 26 5 31 7 4
30 36 51 71 21 34 39 61 40 60 1 -2 32 -45 69 -95z m1246 -29 c7 -7 14 -28 15
-48 5 -48 10 -54 40 -51 20 3 35 -9 78 -61 28 -35 57 -64 63 -64 5 0 20 9 32
20 23 21 29 17 27 -17 -2 -18 5 -23 39 -29 23 -4 59 -8 81 -8 37 -1 42 -5 63
-46 34 -68 29 -82 -41 -104 -14 -5 -17 -11 -11 -28 18 -50 6 -103 -46 -200
l-50 -97 32 -25 c18 -13 46 -30 62 -36 32 -12 33 -12 67 53 22 41 35 47 44 17
3 -10 29 -60 57 -110 52 -94 52 -92 34 -187 -5 -26 33 -55 70 -55 28 0 32 -6
70 -76 74 -137 83 -146 127 -138 44 8 84 61 64 86 -7 8 -18 26 -25 39 -13 22
-22 38 -71 124 -36 64 -55 102 -58 117 -4 20 27 149 37 155 7 4 51 -83 56
-111 3 -20 75 -159 91 -176 21 -23 60 -23 98 0 24 15 30 25 31 58 4 103 24
317 30 323 7 8 64 -52 64 -67 0 -8 -7 -26 -16 -42 -11 -18 -14 -34 -9 -46 5
-11 8 -21 7 -24 0 -3 -3 -45 -7 -93 -7 -93 -9 -89 49 -102 25 -5 26 -7 12 -18
-15 -11 -14 -16 13 -57 17 -25 40 -56 51 -71 l21 -25 -20 -46 c-23 -54 -49
-67 -87 -41 -22 14 -28 15 -32 4 -2 -7 -18 -28 -34 -46 -23 -26 -50 -40 -124
-64 -52 -17 -102 -31 -111 -31 -13 0 -15 -9 -10 -47 3 -27 10 -60 16 -75 l10
-26 53 14 c29 7 56 14 60 14 8 0 4 -21 -15 -80 -8 -25 -22 -70 -31 -100 -16
-60 -32 -80 -83 -111 -39 -22 -43 -54 -13 -92 l21 -26 -27 -98 c-37 -137 -38
-146 -15 -167 22 -20 79 -31 98 -19 6 5 18 33 26 63 47 169 58 207 67 222 6
10 10 24 10 32 0 16 30 39 103 79 l47 27 -6 -28 c-4 -15 -20 -55 -35 -89 -43
-94 -72 -191 -65 -217 6 -23 58 -56 88 -56 11 0 87 60 266 212 13 11 25 18 27
16 9 -9 8 -79 -1 -88 -6 -6 -25 -12 -43 -15 -39 -5 -40 -5 -44 -33 -2 -11 -34
-46 -73 -78 -38 -31 -71 -58 -73 -60 -2 -1 7 -17 19 -33 21 -30 21 -31 1 -31
-14 0 -22 -9 -27 -33 -4 -17 -9 -35 -10 -39 -1 -5 -2 -28 -3 -52 -1 -42 -2
-44 -49 -63 -56 -24 -87 -15 -95 27 -6 26 -8 27 -69 26 -65 -1 -102 12 -210
75 l-47 28 -31 -37 c-16 -20 -30 -44 -30 -53 0 -10 -6 -19 -12 -22 -7 -2 13
-21 45 -41 l59 -38 -64 -33 c-34 -18 -85 -44 -113 -59 -49 -27 -71 -28 -135
-12 -31 9 -59 -18 -69 -65 -5 -23 -17 -37 -46 -53 -22 -11 -41 -24 -43 -28 -2
-5 -8 -8 -13 -8 -6 0 -35 -16 -66 -36 -52 -33 -55 -37 -49 -66 13 -64 60 -91
104 -60 15 11 80 48 145 82 130 69 110 66 245 33 32 -8 33 -9 15 -24 -10 -9
-47 -26 -83 -39 -108 -38 -199 -89 -206 -115 -6 -24 11 -91 25 -99 4 -3 34 -7
67 -11 32 -3 77 -7 99 -9 22 -2 74 -7 115 -11 41 -4 79 -9 83 -12 10 -6 -42
-63 -57 -63 -6 0 -24 7 -39 15 -18 9 -35 12 -45 6 -10 -5 -48 -5 -87 0 -133
16 -131 17 -139 -26 -4 -19 -10 -34 -14 -34 -25 4 -45 -6 -86 -42 -55 -49 -69
-52 -119 -27 -47 24 -53 38 -32 78 14 27 15 34 3 41 -7 5 -16 9 -19 9 -4 0
-18 11 -32 25 -25 26 -53 92 -82 196 l-16 56 -42 -8 c-24 -4 -55 -13 -70 -20
-28 -13 -29 -22 -6 -93 5 -16 7 -31 5 -33 -6 -7 -218 58 -244 74 -12 8 -30 29
-39 48 -9 19 -25 36 -37 38 -21 3 -76 -18 -86 -34 -3 -4 -59 7 -124 26 l-118
33 -23 -24 c-17 -18 -22 -35 -21 -66 l1 -42 100 -27 c55 -14 132 -36 170 -48
70 -21 71 -22 113 -93 l43 -71 -31 6 c-17 4 -55 18 -84 31 -66 30 -173 66
-197 66 -41 0 -79 -41 -79 -86 0 -14 57 -90 108 -143 28 -29 122 -148 122
-155 0 -3 -17 -6 -38 -6 -52 0 -75 26 -81 93 -1 4 -10 7 -20 7 -10 0 -32 16
-47 36 -16 19 -43 51 -60 72 l-32 36 -36 -27 -36 -28 0 30 c0 29 -1 30 -67 37
-38 3 -75 8 -83 9 -30 4 -68 106 -46 124 6 5 23 12 37 16 24 6 25 9 25 73 -1
61 3 75 47 159 26 51 47 96 47 100 0 9 -74 56 -102 66 -12 4 -25 -9 -49 -49
l-33 -54 -16 33 c-28 56 -82 151 -92 164 -12 15 -12 81 0 113 12 31 -19 67
-63 73 -26 3 -38 17 -92 108 -38 64 -70 105 -81 107 -29 5 -69 -15 -87 -41
-15 -23 -14 -28 15 -78 16 -30 55 -99 85 -154 l54 -101 -19 -73 c-10 -40 -20
-75 -23 -77 -8 -8 -24 20 -45 78 -27 72 -89 197 -108 215 -15 15 -58 12 -93
-6 -23 -13 -29 -30 -35 -111 -12 -134 -19 -227 -20 -247 0 -29 -6 -29 -39 0
-32 27 -34 55 -7 89 17 22 17 27 5 46 -15 20 -14 36 0 160 6 45 6 45 -50 57
-28 6 -29 8 -12 20 18 13 17 15 -9 54 -14 23 -30 41 -33 41 -4 0 -15 14 -25
30 -17 30 -17 32 6 78 25 50 46 59 83 35 26 -18 33 -16 40 7 4 12 16 30 28 41
22 20 96 57 127 63 8 1 35 9 60 16 25 7 48 13 51 12 15 -3 15 37 -1 86 -10 29
-19 55 -22 57 -2 2 -28 -3 -57 -11 -29 -9 -55 -14 -58 -11 -2 3 7 43 21 88 14
45 26 86 26 92 0 29 37 80 70 97 50 26 55 44 27 101 -17 36 -21 53 -14 71 8
20 57 195 57 203 0 10 -58 38 -86 40 -37 4 -53 -10 -60 -52 -5 -28 -29 -114
-66 -230 -18 -59 -23 -64 -76 -95 -31 -17 -60 -36 -64 -42 -4 -6 -9 -4 -13 6
-4 10 5 42 20 75 40 84 83 222 77 245 -6 23 -40 47 -75 54 -19 3 -36 -5 -64
-28 -135 -117 -234 -198 -242 -198 -10 0 -8 71 2 87 5 7 26 16 48 19 31 5 39
11 39 28 0 15 23 40 71 79 59 49 69 61 63 80 -4 12 -13 26 -21 30 -19 11 -7
26 16 20 22 -6 31 28 40 150 0 10 13 22 29 28 15 6 27 10 27 9 0 -1 12 3 27 9
29 11 53 -6 60 -44 3 -14 11 -19 28 -18 86 7 93 5 191 -45 54 -29 103 -52 108
-52 11 0 61 77 66 101 3 15 -8 26 -45 47 -28 15 -50 29 -50 32 0 3 21 16 48
30 26 13 73 39 104 57 58 34 112 42 149 23 30 -17 58 5 71 56 10 35 20 48 48
63 39 21 87 48 142 81 33 19 37 26 32 48 -9 39 -38 77 -62 80 -12 2 -34 -5
-49 -16 -16 -11 -81 -47 -145 -81 -126 -66 -115 -65 -227 -34 l-55 15 29 15
c15 9 65 30 109 48 145 59 177 81 178 124 1 40 -32 86 -63 87 -37 2 -168 14
-224 21 -27 3 -62 6 -77 6 -34 1 -35 13 -6 44 25 27 59 29 93 7 19 -12 29 -14
38 -5 8 6 22 9 33 7 62 -12 174 -16 175 -7 1 6 3 16 4 21 1 6 3 19 4 30 1 18
4 19 22 8 17 -10 23 -10 26 0 3 6 9 12 15 12 5 0 32 19 59 42 l49 41 42 -18
c63 -27 70 -40 50 -83 -13 -26 -14 -36 -5 -39 50 -17 92 -85 130 -213 22 -72
31 -77 102 -58 57 16 61 22 45 75 -22 74 -23 73 69 47 172 -50 167 -48 203
-106 28 -44 57 -49 98 -17 26 20 36 21 91 5 34 -10 139 -36 163 -40 15 -3 27
2 36 17 18 28 26 80 16 97 -6 10 -199 71 -304 95 -10 2 -24 9 -32 16 -14 12
-84 122 -84 132 0 11 47 -3 106 -30 33 -15 64 -28 69 -30 6 -1 39 -11 73 -22
77 -24 104 -16 126 38 13 32 13 39 -2 61 -8 14 -20 30 -26 36 -6 6 -31 35 -56
64 -25 29 -50 58 -55 64 -51 54 -83 101 -75 106 16 10 68 6 80 -6z m-882 -25
c-2 -26 -9 -33 -40 -44 -21 -7 -38 -11 -38 -8 0 9 64 83 72 83 5 0 8 -14 6
-31z m649 -26 c21 -26 48 -59 60 -72 12 -14 21 -27 19 -29 -2 -2 -50 16 -105
39 -92 38 -134 69 -117 86 5 6 63 19 93 22 6 0 29 -20 50 -46z m766 -73 c-9
-17 -20 -29 -23 -27 -3 2 -20 9 -37 16 -47 19 -41 29 20 34 28 2 53 4 55 5 2
1 -5 -12 -15 -28z m-1056 -40 c60 -21 63 -25 107 -101 25 -43 46 -81 46 -83 0
-7 -42 7 -147 47 -87 33 -116 49 -122 72 -2 6 -17 29 -33 53 -33 48 -33 47 2
60 18 7 33 4 55 -8 17 -10 59 -28 92 -40z m-552 -40 c3 -5 -1 -10 -10 -10 -9
0 -13 5 -10 10 3 6 8 10 10 10 2 0 7 -4 10 -10z m-472 -82 c24 1 21 -15 -10
-48 -28 -29 -60 -35 -178 -31 l-30 1 48 46 c47 45 48 45 100 38 28 -4 60 -7
70 -6z m2721 -77 l39 -40 -6 -68 c-4 -37 -7 -72 -7 -76 0 -5 -18 6 -40 23
l-40 32 0 84 c0 46 4 84 8 84 4 0 25 -18 46 -39z m-560 16 c9 -7 34 -55 55
-107 l38 -95 -19 -70 c-10 -38 -22 -79 -25 -90 -5 -15 -20 9 -63 99 l-57 120
13 50 c8 28 14 63 14 79 0 29 16 35 44 14z m318 -174 l39 -26 -7 -81 c-4 -45
-7 -87 -7 -93 0 -21 -11 -15 -24 15 -49 111 -71 174 -66 191 7 28 19 26 65 -6z
m-2642 5 c0 -7 -4 -19 -9 -27 -7 -12 -13 -12 -24 -3 -32 27 -80 -68 -78 -153
1 -49 -3 -66 -22 -92 -19 -26 -26 -29 -42 -20 -54 29 -326 258 -319 268 5 9
61 3 109 -12 17 -5 72 -23 124 -40 104 -34 97 -36 131 41 20 45 21 45 75 48
39 2 55 -1 55 -10z m300 -13 c53 -6 68 -11 59 -18 -10 -9 -190 -77 -202 -77
-6 0 -18 4 -25 9 -12 7 -12 12 0 32 24 44 55 67 85 63 15 -1 53 -6 83 -9z
m2780 -60 c0 -8 4 -15 8 -17 4 -1 18 -18 31 -35 19 -29 25 -32 43 -22 18 9 24
8 35 -7 7 -10 13 -21 13 -26 0 -4 5 -8 10 -8 6 0 33 -15 60 -33 l49 -33 -32
-19 c-18 -10 -45 -29 -62 -42 -42 -33 -46 -36 -79 -57 l-29 -18 -38 42 -39 43
24 24 c46 46 40 85 -20 119 -14 9 -19 22 -17 53 2 60 9 76 28 61 8 -7 15 -18
15 -25z m-2812 -217 c45 -12 82 -25 82 -28 0 -4 -19 -15 -42 -25 -24 -10 -77
-34 -118 -53 -67 -30 -79 -32 -110 -23 -35 11 -84 22 -107 23 -15 2 -16 17 -3
38 9 14 170 86 200 89 8 1 52 -9 98 -21z m-779 -82 c36 -38 72 -74 79 -82 23
-24 14 -44 -20 -45 -18 -1 -37 0 -43 1 -5 1 -19 4 -30 6 -28 5 -68 37 -82 65
-13 25 -17 106 -7 133 8 20 14 16 103 -78z m289 -82 c4 -2 -37 -84 -42 -84 -2
0 -4 28 -5 62 l-2 62 23 -20 c13 -10 24 -20 26 -20z m3681 5 c20 -11 49 -39
64 -61 l28 -40 -143 6 c-79 2 -144 5 -145 5 -12 3 2 32 25 53 61 57 115 69
171 37z m-468 -42 c-10 -9 -11 -8 -5 6 3 10 9 15 12 12 3 -3 0 -11 -7 -18z
m182 -157 c34 -29 34 -35 -1 -38 -24 -2 -29 3 -44 44 -15 42 -15 44 1 31 9 -8
28 -25 44 -37z m-3684 -16 c46 -8 85 -14 86 -14 2 0 3 -25 4 -55 l0 -55 -38 0
c-26 0 -46 -7 -64 -24 -23 -22 -24 -26 -13 -66 8 -33 8 -44 -1 -47 -6 -2 -24
-15 -40 -29 -41 -35 -53 -32 -43 14 20 90 20 111 2 116 -12 4 -17 17 -18 48
-1 46 -8 93 -19 120 -7 18 -10 19 144 -8z m4151 -141 c0 -7 -10 -18 -22 -24
-13 -7 -25 -15 -28 -19 -3 -5 -56 -33 -117 -65 -62 -31 -115 -61 -119 -66 -3
-6 4 -35 16 -64 l22 -55 -38 -39 c-20 -22 -41 -38 -46 -35 -13 8 -9 54 4 52
39 -9 -5 126 -52 157 -28 19 -40 39 -55 92 -8 28 19 40 99 48 29 3 63 7 75 10
13 2 67 7 120 11 53 3 97 7 98 8 8 8 43 -1 43 -11z m-565 -86 c4 -15 -5 -48
-24 -90 -17 -36 -33 -77 -37 -91 -7 -30 -9 -32 -106 -85 l-78 -41 26 72 c53
150 71 182 124 211 27 15 52 32 55 37 11 18 35 10 40 -13z m-3587 -243 c2 -37
-2 -45 -60 -105 l-63 -64 -3 40 c-6 69 6 97 56 137 26 20 51 36 57 34 5 -1 11
-20 13 -42z m261 -90 c-56 -136 -88 -159 -106 -77 -10 44 -10 48 16 72 40 39
126 109 129 107 1 -2 -16 -47 -39 -102z m3416 16 c4 -12 8 -36 11 -54 4 -35 8
-30 -95 -116 -59 -48 -61 -43 -21 45 10 22 28 61 39 87 26 59 54 75 66 38z
m289 -87 c-1 -27 -3 -55 -3 -63 -1 -14 -101 -100 -115 -100 -3 0 -6 22 -6 49
0 46 3 52 57 105 31 31 60 56 63 56 4 0 6 -21 4 -47z m-3479 -75 c-10 -36 -74
-202 -83 -213 -4 -6 -35 -29 -70 -52 -58 -39 -63 -40 -72 -23 -14 26 -13 40 6
75 9 17 26 57 39 90 20 54 28 62 76 88 30 16 63 36 74 43 28 20 37 17 30 -8z
m-457 -23 c1 -16 -3 -25 -13 -25 -38 0 2 -116 57 -165 30 -25 43 -46 48 -75 7
-40 7 -40 -29 -49 -20 -5 -65 -13 -101 -16 -36 -4 -73 -9 -84 -11 -10 -2 -66
-6 -125 -9 l-106 -5 38 32 c20 18 86 58 147 88 60 30 112 61 115 68 3 8 -4 34
-15 59 -11 25 -20 49 -20 53 0 10 67 80 77 80 5 0 10 -11 11 -25z m3909 -242
c-13 -66 -12 -71 6 -82 10 -7 16 -18 13 -26 -3 -8 3 -44 13 -81 l19 -66 -52 5
c-49 5 -83 11 -156 26 -33 7 -35 9 -34 44 3 56 10 68 39 63 13 -3 27 0 31 5 3
5 9 7 14 4 5 -3 16 5 25 19 13 19 14 32 6 60 -9 35 -8 37 36 71 26 19 48 34
50 32 2 -2 -3 -35 -10 -74z m-3739 -251 c6 -20 9 -38 7 -41 -6 -5 -75 59 -75
68 0 4 13 7 29 8 24 2 29 -3 39 -35z m-173 -116 c17 -2 33 -4 38 -5 19 -3 3
-32 -31 -60 -74 -58 -143 -57 -196 3 -28 31 -56 66 -56 69 0 3 211 -2 245 -7z
m3571 -55 c5 -54 0 -60 -31 -37 -19 14 -19 15 0 54 11 22 21 39 23 37 1 -1 5
-26 8 -54z m281 2 c57 -27 81 -93 64 -178 l-6 -30 -65 66 c-145 146 -155 169
-72 162 26 -3 61 -11 79 -20z m-621 -63 c16 -5 45 -12 64 -14 62 -6 50 -55
-18 -77 -20 -6 -63 -23 -95 -36 l-57 -26 -58 19 c-31 10 -59 19 -62 19 -3 0
-18 4 -35 9 l-30 8 55 26 c73 35 182 81 196 81 6 1 24 -3 40 -9z m-2986 -107
c0 -4 -9 -16 -20 -28 -12 -12 -23 -37 -26 -56 -5 -30 -2 -36 28 -53 18 -11 36
-23 39 -28 7 -11 -11 -108 -20 -108 -3 0 -23 27 -44 60 -35 53 -41 58 -62 50
-17 -6 -25 -5 -29 5 -3 8 -33 32 -67 53 l-62 40 61 43 c33 24 70 51 82 59 12
8 29 20 38 27 14 10 22 6 50 -23 17 -19 32 -38 32 -41z m3275 -45 c236 -189
275 -223 275 -238 0 -17 -92 3 -233 52 -59 20 -92 27 -99 20 -5 -5 -20 -32
-33 -58 l-24 -49 -55 -1 c-61 -1 -61 -1 -45 27 7 14 16 18 30 14 39 -13 82 79
74 155 -3 36 1 52 21 83 l25 38 27 -17 c15 -10 31 -21 37 -26z m-2830 -156
c26 -63 35 -100 31 -118 l-7 -25 -37 23 c-51 31 -59 40 -56 63 5 34 13 119 13
145 1 37 15 15 56 -88z m265 61 c8 -16 14 -30 15 -33 1 -3 15 -36 33 -73 39
-84 40 -95 23 -179 -10 -53 -17 -68 -31 -68 -25 0 -34 13 -75 118 -26 65 -35
102 -30 120 15 66 40 142 46 142 3 0 12 -12 19 -27z m2216 -71 c8 -5 1 -22
-21 -54 -17 -27 -34 -46 -36 -43 -5 5 -84 12 -154 14 -36 1 -38 3 -20 13 37
22 180 77 200 77 11 1 25 -3 31 -7z m-2734 -101 c28 -26 31 -34 30 -92 0 -125
3 -120 -47 -66 -42 45 -45 51 -41 95 3 26 5 57 5 70 1 30 16 28 53 -7z m210
-185 c-3 -23 3 -29 52 -52 43 -19 67 -24 103 -21 43 4 81 -8 122 -40 13 -9
-258 -353 -278 -353 -6 0 -6 48 0 60 1 3 3 10 4 15 4 23 28 105 51 177 24 74
24 109 -2 110 -12 0 -55 16 -74 26 -9 6 -15 27 -16 65 -1 53 0 55 20 48 15 -6
20 -15 18 -35z m2692 33 c4 -3 -14 -25 -38 -47 -42 -39 -47 -41 -93 -36 -82
10 -88 11 -85 24 3 14 44 56 61 61 19 7 149 5 155 -2z m-1279 -38 c140 -50
162 -61 174 -88 7 -15 25 -43 40 -62 24 -30 26 -38 15 -48 -18 -18 -49 -16
-87 4 -18 10 -57 27 -87 39 -51 20 -57 26 -101 102 -26 45 -44 82 -41 82 4 0
43 -13 87 -29z m634 -122 c-14 -8 -29 -3 -29 11 0 4 9 6 21 3 15 -4 17 -8 8
-14z m389 -43 c38 -5 35 -12 -28 -52 -60 -39 -71 -59 -48 -82 10 -10 10 -14 0
-21 -7 -4 -30 -36 -52 -70 -30 -49 -40 -60 -49 -49 -31 36 -111 150 -111 158
0 4 -6 10 -12 13 -8 3 1 19 26 46 40 40 40 41 60 22 19 -17 50 -25 81 -22 6 1
19 17 30 37 17 32 22 35 50 29 16 -3 40 -8 53 -9z m-1117 -98 c16 -24 9 -35
-23 -43 -63 -14 -68 -13 -111 38 -23 27 -50 58 -59 70 -10 11 -18 23 -18 28 0
11 201 -77 211 -93z m-844 67 c20 -8 34 -17 32 -19 -6 -5 -109 -14 -109 -9 0
12 22 43 31 43 5 0 26 -7 46 -15z m1443 -48 c0 -2 -9 -15 -21 -28 -12 -13 -27
-33 -35 -44 -13 -17 -16 -18 -24 -5 -14 22 -12 50 4 50 7 0 27 7 42 15 31 16
34 17 34 12z m-234 -114 c3 -16 8 -35 10 -43 2 -8 6 -42 9 -75 3 -33 8 -71 10
-85 3 -14 8 -70 11 -125 l7 -100 -21 19 c-25 22 -73 101 -126 209 -37 74 -51
87 -71 69 -6 -5 -29 -14 -52 -22 l-41 -13 -42 40 c-40 39 -41 41 -18 47 16 4
28 0 39 -13 15 -19 17 -19 70 -1 38 13 65 31 90 60 32 36 61 52 111 59 4 1 10
-11 14 -26z m-1212 -72 c-2 -65 -28 -116 -69 -133 -36 -15 -102 -18 -131 -5
-20 9 -20 9 6 35 118 116 172 163 182 159 9 -2 13 -22 12 -56z m296 22 c0 -40
18 -81 39 -87 9 -3 33 -2 53 3 35 8 39 7 63 -24 14 -19 25 -38 25 -44 0 -6 5
-11 12 -11 6 0 9 -2 6 -5 -3 -3 -37 1 -77 9 l-73 13 -11 -24 c-7 -16 -13 -20
-18 -12 -7 11 -65 4 -148 -18 -22 -6 -23 -4 -17 38 3 24 8 55 11 69 3 14 8 45
11 70 3 25 11 48 17 52 6 3 32 6 59 5 47 -2 48 -3 48 -34z m1292 -44 c31 -47
36 -94 14 -137 -15 -29 -71 -77 -89 -77 -11 0 -13 205 -3 250 2 11 5 24 5 28
2 16 45 -23 73 -64z m-900 -18 c3 0 31 -27 62 -58 43 -44 53 -59 40 -63 -24
-9 -97 3 -119 20 -21 15 -75 82 -75 93 0 10 57 15 92 8z"/>
</g>
</svg>
